<svg
  width="94"
  height="68"
  viewBox="0 0 94 68"
  fill="none"
  xmlns="http://www.w3.org/2000/svg"
>
<path
    d="M68.494 22.1304C68.494 23.053 68.4388 23.9638 68.3283 24.8549C68.0404 27.185 67.3935 29.4008 66.4429 31.4471C66.1787 32.0109 65.8947 32.5668 65.5831 33.103C65.0111 34.1005 64.3643 35.0507 63.6503 35.9457C59.5916 41.0121 53.3556 44.2569 46.3583 44.2569C38.943 44.2569 32.3835 40.6139 28.3642 35.0192C27.7252 34.1321 27.1533 33.1937 26.6524 32.2159C26.6366 32.1883 26.6248 32.1607 26.609 32.1292C25.6663 30.2761 24.98 28.2732 24.5895 26.1638C24.3489 24.8549 24.2227 23.5025 24.2227 22.1265C24.2187 9.90804 34.1269 0 46.3544 0C58.5818 0 68.494 9.90804 68.494 22.1304Z"
    fill="#EAB61F"
  />
<path
    d="M0 59.2038V53.5105C0 53.1833 0.0828312 52.8797 0.252438 52.6037C0.422045 52.3277 0.642928 52.103 0.919032 51.9374C1.19514 51.7679 1.50279 51.6851 1.84201 51.6851H6.00723V53.5263H1.92089C1.90512 53.5263 1.8854 53.5342 1.86962 53.5539C1.85384 53.5697 1.84201 53.5894 1.84201 53.6052V59.2078H0V59.2038Z"
    fill="#0C0B0B"
  />
<path
    d="M7.82235 58.9514C7.54625 58.7819 7.32142 58.5611 7.15576 58.2851C6.98615 58.0091 6.90332 57.7055 6.90332 57.3783V53.5144C6.90332 53.1872 6.98615 52.8836 7.15576 52.6076C7.32537 52.3316 7.54625 52.1069 7.82235 51.9413C8.09846 51.7718 8.40217 51.689 8.72955 51.689H12.7015C13.0407 51.689 13.3444 51.7718 13.6245 51.9413C13.9006 52.1108 14.1215 52.3316 14.2871 52.6076C14.4528 52.8836 14.5317 53.1872 14.5317 53.5144V56.3808H8.74533V57.2876C8.74533 57.3034 8.75322 57.3231 8.77294 57.3389C8.78872 57.3546 8.80844 57.3665 8.82422 57.3665H14.5317V59.2077H8.7335C8.40217 59.2038 8.09846 59.121 7.82235 58.9514ZM8.74533 54.7327H12.6897V53.6051C12.6897 53.5894 12.6818 53.5696 12.6621 53.5539C12.6463 53.5381 12.6266 53.5263 12.6108 53.5263H8.82422C8.80844 53.5263 8.78872 53.5342 8.77294 53.5539C8.75716 53.5696 8.74533 53.5894 8.74533 53.6051V54.7327Z"
    fill="#0C0B0B"
  />
<path
    d="M16.4873 58.9514C16.2112 58.7819 15.9863 58.5611 15.8207 58.2851C15.6511 58.0091 15.5682 57.7055 15.5682 57.3783V49.209H17.4221V57.2876C17.4221 57.3034 17.43 57.3231 17.4497 57.3389C17.4655 57.3546 17.4852 57.3665 17.501 57.3665H18.9801V59.2077H17.3984C17.0671 59.2038 16.7673 59.121 16.4873 58.9514Z"
    fill="#0C0B0B"
  />
<path
    d="M20.8732 58.9514C20.5971 58.7819 20.3723 58.5611 20.2066 58.2851C20.037 58.0091 19.9542 57.7055 19.9542 57.3783V53.5144C19.9542 53.1872 20.037 52.8836 20.2066 52.6076C20.3762 52.3316 20.5971 52.1069 20.8732 51.9413C21.1493 51.7718 21.453 51.689 21.7804 51.689H25.7484C26.0876 51.689 26.3913 51.7718 26.6714 51.9413C26.9475 52.1108 27.1684 52.3316 27.334 52.6076C27.4997 52.8836 27.5786 53.1872 27.5786 53.5144V57.3783C27.5786 57.7055 27.4958 58.0091 27.334 58.2851C27.1684 58.5611 26.9475 58.7858 26.6714 58.9514C26.3953 59.121 26.0876 59.2038 25.7484 59.2038H21.7804C21.453 59.2038 21.1493 59.121 20.8732 58.9514ZM21.8711 57.3625H25.6577C25.6735 57.3625 25.6932 57.3546 25.709 57.3349C25.7247 57.3192 25.7366 57.2994 25.7366 57.2837V53.6012C25.7366 53.5854 25.7287 53.5657 25.709 53.5499C25.6932 53.5342 25.6735 53.5223 25.6577 53.5223H21.8711C21.8553 53.5223 21.8356 53.5302 21.8198 53.5499C21.8041 53.5657 21.7922 53.5854 21.7922 53.6012V57.2837C21.7922 57.2994 21.8001 57.3192 21.8198 57.3349C21.8396 57.3546 21.8553 57.3625 21.8711 57.3625Z"
    fill="#0C0B0B"
  />
<path
    d="M30.4619 59.2038C30.1227 59.2038 29.819 59.121 29.5389 58.9515C29.2589 58.7819 29.0419 58.5611 28.8763 58.2852C28.7106 58.0092 28.6317 57.7056 28.6317 57.3783V54.512H34.4181V53.6052C34.4181 53.5894 34.4102 53.5697 34.3905 53.5539C34.3747 53.5381 34.355 53.5263 34.3392 53.5263H28.6317V51.6851H34.4299C34.7691 51.6851 35.0728 51.7679 35.3529 51.9374C35.629 52.1069 35.8499 52.3277 36.0155 52.6037C36.1812 52.8797 36.2601 53.1833 36.2601 53.5105V59.2038H30.4619ZM30.5526 57.3626H34.4181V56.1561H30.4737V57.2837C30.4737 57.2995 30.4816 57.3192 30.5013 57.335C30.5171 57.3547 30.5329 57.3626 30.5526 57.3626Z"
    fill="#0C0B0B"
  />
<path
    d="M38.1689 58.9513C37.8928 58.7817 37.6719 58.561 37.5063 58.285C37.3406 58.009 37.2617 57.7054 37.2617 57.3781V53.5143C37.2617 53.187 37.3446 52.8834 37.5063 52.6075C37.6719 52.3315 37.8928 52.1067 38.1689 51.9411C38.445 51.7716 38.7566 51.6888 39.1037 51.6888H43.0599V49.2246H44.9019V59.2115H39.1037C38.7566 59.2036 38.445 59.1208 38.1689 58.9513ZM39.1905 57.3624H42.9771C42.9929 57.3624 43.0126 57.3545 43.0284 57.3348C43.0441 57.319 43.056 57.2993 43.056 57.2835V53.601C43.056 53.5852 43.0481 53.5655 43.0284 53.5498C43.0126 53.534 42.9929 53.5222 42.9771 53.5222H39.1905C39.1747 53.5222 39.155 53.53 39.1392 53.5498C39.1234 53.5655 39.1116 53.5852 39.1116 53.601V57.2835C39.1116 57.2993 39.1195 57.319 39.1392 57.3348C39.1589 57.3545 39.1747 57.3624 39.1905 57.3624Z"
    fill="#0C0B0B"
  />
<path
    d="M46.303 59.2036V51.0462C46.303 50.7189 46.3858 50.4153 46.5554 50.1394C46.725 49.8634 46.9459 49.6386 47.222 49.473C47.4981 49.3035 47.8058 49.2207 48.145 49.2207H51.0125V51.0738H48.2239C48.2081 51.0738 48.1884 51.0817 48.1726 51.1014C48.1568 51.1171 48.145 51.1369 48.145 51.1526V51.6849H51.0125V53.5261H48.145V59.2076H46.303V59.2036Z"
    fill="#EAB61F"
  />
<path
    d="M51.9308 59.2038V53.5105C51.9308 53.1833 52.0136 52.8797 52.1832 52.6037C52.3528 52.3277 52.5737 52.103 52.8498 51.9374C53.1259 51.7679 53.4336 51.6851 53.7728 51.6851H57.938V53.5263H53.8517C53.8359 53.5263 53.8162 53.5342 53.8004 53.5539C53.7846 53.5697 53.7728 53.5894 53.7728 53.6052V59.2078H51.9308V59.2038Z"
    fill="#EAB61F"
  />
<path
    d="M59.7571 58.9514C59.481 58.7819 59.2562 58.5611 59.0905 58.2851C58.9209 58.0091 58.8381 57.7055 58.8381 57.3783V53.5144C58.8381 53.1872 58.9209 52.8836 59.0905 52.6076C59.2601 52.3316 59.481 52.1069 59.7571 51.9413C60.0332 51.7718 60.3369 51.689 60.6643 51.689H64.6323C64.9715 51.689 65.2752 51.7718 65.5553 51.9413C65.8314 52.1108 66.0523 52.3316 66.2179 52.6076C66.3836 52.8836 66.4625 53.1872 66.4625 53.5144V56.3808H60.6761V57.2876C60.6761 57.3034 60.684 57.3231 60.7038 57.3389C60.7195 57.3546 60.7393 57.3665 60.755 57.3665H66.4625V59.2077H60.6643C60.3369 59.2038 60.0332 59.121 59.7571 58.9514ZM60.6761 54.7327H64.6205V53.6051C64.6205 53.5894 64.6126 53.5696 64.5929 53.5539C64.5771 53.5381 64.5574 53.5263 64.5416 53.5263H60.755C60.7393 53.5263 60.7195 53.5342 60.7038 53.5539C60.688 53.5696 60.6761 53.5894 60.6761 53.6051V54.7327Z"
    fill="#EAB61F"
  />
<path
    d="M67.8271 49.2207H69.6692V51.0738H67.8271V49.2207ZM67.8271 51.6849H69.6692V59.2076H67.8271V51.6849Z"
    fill="#EAB61F"
  />
<path
    d="M71.8348 62.1765V60.3235H76.3353C76.351 60.3235 76.3708 60.3156 76.3865 60.2959C76.4023 60.2801 76.4142 60.2604 76.4142 60.2446V59.2077H72.458C72.1188 59.2077 71.815 59.1249 71.535 58.9554C71.2589 58.7858 71.0341 58.565 70.8684 58.289C70.6988 58.013 70.616 57.7095 70.616 57.3822V53.5183C70.616 53.1911 70.6988 52.8875 70.8684 52.6115C71.038 52.3355 71.2589 52.1108 71.535 51.9452C71.8111 51.7757 72.1188 51.6929 72.458 51.6929H76.426C76.7652 51.6929 77.0689 51.7757 77.349 51.9452C77.6251 52.1147 77.846 52.3355 78.0116 52.6115C78.1773 52.8875 78.2601 53.1911 78.2601 53.5183V60.3392C78.2601 60.6862 78.1773 60.9977 78.0116 61.2737C77.846 61.5497 77.6251 61.7704 77.349 61.936C77.0729 62.1016 76.7652 62.1805 76.426 62.1805H71.8348V62.1765ZM72.5369 57.3625H76.3392C76.355 57.3625 76.3747 57.3546 76.3905 57.3349C76.4063 57.3191 76.4181 57.2994 76.4181 57.2836V53.6011C76.4181 53.5854 76.4102 53.5657 76.3905 53.5499C76.3747 53.5341 76.355 53.5223 76.3392 53.5223H72.5369C72.5211 53.5223 72.5014 53.5302 72.4856 53.5499C72.4698 53.5657 72.458 53.5854 72.458 53.6011V57.2836C72.458 57.2994 72.4659 57.3191 72.4856 57.3349C72.5014 57.3546 72.5171 57.3625 72.5369 57.3625Z"
    fill="#EAB61F"
  />
<path
    d="M79.6446 59.2037V49.2168H81.4866V51.681H85.4428C85.7702 51.681 86.0739 51.7638 86.35 51.9333C86.6261 52.1029 86.8509 52.3237 87.0166 52.5996C87.1862 52.8756 87.269 53.1792 87.269 53.5065V59.1997H85.427V53.5971C85.427 53.5814 85.4191 53.5617 85.3994 53.5459C85.3836 53.5301 85.3639 53.5183 85.3481 53.5183H81.5615C81.5458 53.5183 81.526 53.5262 81.5103 53.5459C81.4945 53.5617 81.4827 53.5814 81.4827 53.5971V59.1997H79.6446V59.2037Z"
    fill="#EAB61F"
  />
<path
    d="M89.2168 58.9515C88.9407 58.7819 88.7158 58.5612 88.5502 58.2852C88.3806 58.0092 88.2977 57.7056 88.2977 57.3783V49.4141H90.1397V51.6851H93.0073V53.5263H90.1397V57.2877C90.1397 57.3034 90.1476 57.3231 90.1673 57.3389C90.1831 57.3547 90.2028 57.3665 90.2186 57.3665H93.0073V59.2078H90.1397C89.8005 59.2038 89.4968 59.121 89.2168 58.9515Z"
    fill="#EAB61F"
  />
<path
    d="M27.5552 67.1603C27.4763 67.1603 27.4014 67.1406 27.3343 67.1011C27.2673 67.0617 27.2121 67.0065 27.1726 66.9395C27.1332 66.8725 27.1134 66.7975 27.1134 66.7187V65.9499H28.9752V65.4807C28.9752 65.4413 28.9594 65.4097 28.9318 65.3782C28.9042 65.3506 28.8687 65.3348 28.8292 65.3348H27.1095V65.0352H28.8292C28.9121 65.0352 28.987 65.0549 29.0541 65.0943C29.1211 65.1337 29.1763 65.1889 29.2158 65.2559C29.2552 65.323 29.2749 65.3979 29.2749 65.4767V67.1563H27.5552V67.1603ZM27.5552 66.8606H28.9712V66.2495H27.4132V66.7187C27.4132 66.7581 27.429 66.7897 27.4566 66.8212C27.4842 66.8449 27.5158 66.8606 27.5552 66.8606Z"
    fill="#0C0B0B"
  />
<path
    d="M30.671 67.1602V64.5186H30.9668V66.8645H33.3058V67.1602H30.671Z"
    fill="#0C0B0B"
  />
<path
    d="M33.9486 67.1603C33.8698 67.1603 33.7948 67.1406 33.7278 67.1011C33.6607 67.0617 33.6055 67.0065 33.566 66.9395C33.5266 66.8725 33.5069 66.7975 33.5069 66.7187V65.9499H35.3686V65.4807C35.3686 65.4413 35.3528 65.4097 35.3252 65.3782C35.2976 65.3506 35.2621 65.3348 35.2227 65.3348H33.5029V65.0352H35.2227C35.3055 65.0352 35.3804 65.0549 35.4475 65.0943C35.5145 65.1337 35.5698 65.1889 35.6092 65.2559C35.6487 65.323 35.6684 65.3979 35.6684 65.4767V67.1563H33.9486V67.1603ZM33.9486 66.8606H35.3647V66.2495H33.8027V66.7187C33.8027 66.7581 33.8185 66.7897 33.8461 66.8212C33.8737 66.8449 33.9092 66.8606 33.9486 66.8606Z"
    fill="#0C0B0B"
  />
<path
    d="M36.0001 67.1603V65.0352H37.7238C37.8027 65.0352 37.8776 65.0549 37.9447 65.0943C38.0117 65.1337 38.067 65.1889 38.1064 65.2559C38.1458 65.323 38.1656 65.3979 38.1656 65.4767V67.1563H37.8658V65.4767C37.8658 65.4373 37.85 65.4058 37.8224 65.3742C37.7948 65.3466 37.7593 65.3309 37.7199 65.3309H36.4458C36.4064 65.3309 36.3709 65.3466 36.3433 65.3742C36.3157 65.4018 36.2999 65.4373 36.2999 65.4767V67.1563H36.0001V67.1603Z"
    fill="#0C0B0B"
  />
<path
    d="M38.6585 67.0973C38.5915 67.0578 38.5362 67.0026 38.4968 66.9356C38.4573 66.8686 38.4376 66.7937 38.4376 66.7148V65.4768C38.4376 65.398 38.4573 65.323 38.4968 65.256C38.5362 65.189 38.5915 65.1338 38.6585 65.0944C38.7256 65.0549 38.8005 65.0352 38.8833 65.0352H40.2994V64.3413H40.5991V67.1603H38.8794C38.8005 67.1603 38.7256 67.1406 38.6585 67.0973ZM38.8833 66.8607H40.1574C40.1968 66.8607 40.2284 66.8449 40.2599 66.8173C40.2875 66.7897 40.3033 66.7542 40.3033 66.7148V65.4768C40.3033 65.4374 40.2875 65.4058 40.2599 65.3743C40.2323 65.3467 40.1968 65.3309 40.1574 65.3309H38.8833C38.8439 65.3309 38.8123 65.3467 38.7808 65.3743C38.7532 65.4019 38.7374 65.4374 38.7374 65.4768V66.7148C38.7374 66.7542 38.7532 66.7858 38.7808 66.8173C38.8123 66.8449 38.8439 66.8607 38.8833 66.8607Z"
    fill="#0C0B0B"
  />
<path
    d="M41.1947 67.0972C41.1276 67.0578 41.0724 67.0026 41.033 66.9356C40.9935 66.8686 40.9738 66.7936 40.9738 66.7148V66.6872H41.2736V66.7148C41.2736 66.7542 41.2894 66.7858 41.317 66.8173C41.3446 66.8449 41.3801 66.8607 41.4195 66.8607H42.6936C42.733 66.8607 42.7645 66.8449 42.7961 66.8173C42.8237 66.7897 42.8395 66.7542 42.8395 66.7148V66.3875C42.8395 66.3481 42.8237 66.3166 42.7961 66.285C42.7685 66.2574 42.733 66.2417 42.6936 66.2417H41.4156C41.3367 66.2417 41.2618 66.2219 41.1947 66.1825C41.1276 66.1431 41.0724 66.0879 41.033 66.0209C40.9935 65.9538 40.9738 65.8789 40.9738 65.8001V65.4728C40.9738 65.394 40.9935 65.3191 41.033 65.252C41.0724 65.185 41.1276 65.1298 41.1947 65.0904C41.2618 65.051 41.3367 65.0312 41.4156 65.0312H42.6896C42.7724 65.0312 42.8474 65.051 42.9144 65.0904C42.9815 65.1298 43.0367 65.185 43.0761 65.252C43.1156 65.3191 43.1353 65.394 43.1353 65.4728V65.5004H42.8316V65.4728C42.8316 65.4334 42.8158 65.4019 42.7882 65.3703C42.7606 65.3427 42.7251 65.327 42.6857 65.327H41.4156C41.3761 65.327 41.3446 65.3427 41.313 65.3703C41.2854 65.3979 41.2696 65.4334 41.2696 65.4728V65.8001C41.2696 65.8395 41.2854 65.871 41.313 65.9026C41.3406 65.9302 41.3761 65.946 41.4156 65.946H42.6896C42.7724 65.946 42.8474 65.9657 42.9144 66.0051C42.9815 66.0445 43.0367 66.0997 43.0761 66.1667C43.1156 66.2338 43.1353 66.3087 43.1353 66.3875V66.7148C43.1353 66.7936 43.1156 66.8686 43.0761 66.9356C43.0367 67.0026 42.9815 67.0578 42.9144 67.0972C42.8474 67.1367 42.7724 67.1564 42.6896 67.1564H41.4156C41.3367 67.1603 41.2618 67.1406 41.1947 67.0972Z"
    fill="#0C0B0B"
  />
<path
    d="M43.7238 67.0968C43.6567 67.0574 43.6015 67.0022 43.566 66.9352C43.5266 66.8681 43.5068 66.7932 43.5068 66.7144V64.3369H43.8066V65.0308H44.7256V65.3305H43.8066V66.7104C43.8066 66.7499 43.8224 66.7814 43.85 66.8129C43.8776 66.8405 43.9131 66.8563 43.9525 66.8563H44.7296V67.156H43.9525C43.8658 67.1599 43.7908 67.1402 43.7238 67.0968Z"
    fill="#0C0B0B"
  />
<path
    d="M45.4465 67.1603C45.3676 67.1603 45.2927 67.1406 45.2256 67.1011C45.1586 67.0617 45.1033 67.0065 45.0639 66.9395C45.0245 66.8725 45.0047 66.7975 45.0047 66.7187V65.9499H46.8665V65.4807C46.8665 65.4413 46.8507 65.4097 46.8231 65.3782C46.7955 65.3506 46.76 65.3348 46.7205 65.3348H45.0008V65.0352H46.7205C46.8034 65.0352 46.8783 65.0549 46.9454 65.0943C47.0124 65.1337 47.0676 65.1889 47.1071 65.2559C47.1465 65.323 47.1662 65.3979 47.1662 65.4767V67.1563H45.4465V67.1603ZM45.4465 66.8606H46.8625V66.2495H45.3006V66.7187C45.3006 66.7581 45.3163 66.7897 45.3439 66.8212C45.3716 66.8449 45.4071 66.8606 45.4465 66.8606Z"
    fill="#0C0B0B"
  />
<path
    d="M47.5254 67.1602V65.4806C47.5254 65.4018 47.5451 65.3269 47.5846 65.2599C47.624 65.1928 47.6792 65.1376 47.7463 65.0982C47.8133 65.0588 47.8883 65.0391 47.9672 65.0391H49.1623V65.3387H47.9672C47.9277 65.3387 47.8962 65.3545 47.8646 65.3821C47.837 65.4097 47.8212 65.4452 47.8212 65.4846V67.1642H47.5254V67.1602Z"
    fill="#0C0B0B"
  />
<path
    d="M50.4208 64.9601C50.4208 64.8812 50.4405 64.8063 50.4799 64.7393C50.5194 64.6723 50.5707 64.621 50.6377 64.5816C50.7048 64.5422 50.7797 64.5225 50.8586 64.5225H52.6178C52.6967 64.5225 52.7716 64.5422 52.8387 64.5816C52.9057 64.621 52.957 64.6723 52.9964 64.7393C53.0359 64.8063 53.0556 64.8812 53.0556 64.9601V67.1562H52.7598V66.1942H50.7166V67.1562H50.4208V64.9601V64.9601ZM52.7637 65.8985V64.9601C52.7637 64.9207 52.7479 64.8891 52.7203 64.8576C52.6927 64.83 52.6572 64.8142 52.6178 64.8142H50.8586C50.8192 64.8142 50.7876 64.83 50.756 64.8576C50.7284 64.8852 50.7127 64.9207 50.7127 64.9601V65.8985H52.7637Z"
    fill="#0C0B0B"
  />
<path
    d="M53.8125 68V67.6965H55.1378C55.1773 67.6965 55.2088 67.6807 55.2404 67.6531C55.268 67.6255 55.2837 67.59 55.2837 67.5506V67.1602H53.8677C53.7888 67.1602 53.7139 67.1405 53.6468 67.1011C53.5798 67.0617 53.5246 67.0065 53.4851 66.9395C53.4457 66.8724 53.426 66.7975 53.426 66.7187V65.4806C53.426 65.4018 53.4457 65.3269 53.4851 65.2599C53.5246 65.1928 53.5798 65.1376 53.6468 65.0982C53.7139 65.0588 53.7888 65.0391 53.8677 65.0391H55.1418C55.2246 65.0391 55.2995 65.0588 55.3666 65.0982C55.4336 65.1376 55.4849 65.1928 55.5244 65.2599C55.5638 65.3269 55.5835 65.4018 55.5835 65.4806V67.5545C55.5835 67.6373 55.5638 67.7122 55.5244 67.7792C55.4849 67.8463 55.4336 67.9015 55.3666 67.9409C55.2995 67.9803 55.2246 68 55.1418 68H53.8125ZM53.8638 66.8606H55.1378C55.1773 66.8606 55.2088 66.8448 55.2404 66.8172C55.268 66.7896 55.2837 66.7541 55.2837 66.7147V65.4767C55.2837 65.4373 55.268 65.4057 55.2404 65.3742C55.2128 65.3466 55.1773 65.3308 55.1378 65.3308H53.8638C53.8243 65.3308 53.7928 65.3466 53.7612 65.3742C53.7336 65.4018 53.7178 65.4373 53.7178 65.4767V66.7147C53.7178 66.7541 53.7336 66.7857 53.7612 66.8172C53.7928 66.8448 53.8243 66.8606 53.8638 66.8606Z"
    fill="#0C0B0B"
  />
<path
    d="M56.128 67.0972C56.0609 67.0578 56.0057 67.0026 55.9663 66.9355C55.9268 66.8685 55.9071 66.7936 55.9071 66.7148V65.4767C55.9071 65.3979 55.9268 65.323 55.9663 65.2559C56.0057 65.1889 56.0609 65.1337 56.128 65.0943C56.195 65.0549 56.27 65.0352 56.3489 65.0352H57.6229C57.7057 65.0352 57.7807 65.0549 57.8477 65.0943C57.9148 65.1337 57.97 65.1889 58.0094 65.2559C58.0489 65.323 58.0686 65.3979 58.0686 65.4767V66.2456H56.2069V66.7148C56.2069 66.7542 56.2227 66.7857 56.2503 66.8173C56.2779 66.8449 56.3134 66.8606 56.3528 66.8606H58.0765V67.1603H56.3528C56.27 67.1603 56.195 67.1406 56.128 67.0972ZM56.2069 65.9459H57.7688V65.4767C57.7688 65.4373 57.7531 65.4058 57.7254 65.3742C57.6978 65.3466 57.6623 65.3309 57.6229 65.3309H56.3489C56.3094 65.3309 56.2779 65.3466 56.2463 65.3742C56.2187 65.4018 56.2029 65.4373 56.2029 65.4767V65.9459H56.2069Z"
    fill="#0C0B0B"
  />
<path
    d="M58.4512 67.1603V65.0352H60.1748C60.2537 65.0352 60.3287 65.0549 60.3957 65.0943C60.4628 65.1337 60.518 65.1889 60.5575 65.2559C60.5969 65.323 60.6166 65.3979 60.6166 65.4767V67.1563H60.3168V65.4767C60.3168 65.4373 60.3011 65.4058 60.2735 65.3742C60.2458 65.3466 60.2103 65.3309 60.1709 65.3309H58.8969C58.8574 65.3309 58.8219 65.3466 58.7943 65.3742C58.7667 65.4018 58.7509 65.4373 58.7509 65.4767V67.1563H58.4512V67.1603Z"
    fill="#0C0B0B"
  />
<path
    d="M61.141 67.0972C61.0739 67.0578 61.0187 67.0026 60.9793 66.9355C60.9398 66.8685 60.9201 66.7936 60.9201 66.7148V65.4767C60.9201 65.3979 60.9398 65.323 60.9793 65.2559C61.0187 65.1889 61.0739 65.1337 61.141 65.0943C61.208 65.0549 61.283 65.0352 61.3619 65.0352H63.0777V65.3348H61.3619C61.3224 65.3348 61.2909 65.3506 61.2593 65.3782C61.2317 65.4058 61.2159 65.4413 61.2159 65.4807V66.7187C61.2159 66.7581 61.2317 66.7897 61.2593 66.8212C61.2869 66.8488 61.3224 66.8646 61.3619 66.8646H63.0856V67.1642H61.3619C61.279 67.1603 61.208 67.1406 61.141 67.0972Z"
    fill="#0C0B0B"
  />
<path
    d="M63.824 68V67.6964H65.1493C65.1888 67.6964 65.2203 67.6806 65.2519 67.653C65.2795 67.6254 65.2953 67.59 65.2953 67.5505V67.1563H63.8793C63.8004 67.1563 63.7254 67.1366 63.6584 67.0971C63.5913 67.0577 63.5361 67.0025 63.4967 66.9355C63.4572 66.8684 63.4375 66.7935 63.4375 66.7147V65.043H63.7373V66.7147C63.7373 66.7541 63.753 66.7856 63.7807 66.8172C63.8083 66.8448 63.8438 66.8606 63.8832 66.8606H65.1572C65.1967 66.8606 65.2282 66.8448 65.2598 66.8172C65.2874 66.7896 65.3032 66.7541 65.3032 66.7147V65.043H65.6029V67.5545C65.6029 67.6373 65.5832 67.7122 65.5438 67.7792C65.5043 67.8462 65.4531 67.9014 65.386 67.9409C65.3189 67.9803 65.244 68 65.1612 68H63.824V68Z"
    fill="#0C0B0B"
  />
<path
    d="M63.437 22.5722C63.437 22.5722 63.6224 22.6077 64.0681 19.5876C62.2182 19.2682 59.5794 17.9474 57.3588 16.6739C61.3583 17.1431 65.7129 16.0431 65.7129 16.0431L64.6045 13.1964C62.6402 13.9061 59.2599 14.0008 56.5778 13.9377C55.8007 8.53222 53.3552 3.51709 46.354 3.51709C37.0809 3.51709 35.799 12.3054 35.799 19.1618C35.799 22.5012 37.2978 25.5332 39.3213 27.7648C38.493 27.816 37.6646 27.8752 36.8363 27.9422L32.1189 16.8829C31.9059 16.3822 31.3261 16.1495 30.8251 16.3624L29.7878 16.804C29.2869 17.0169 29.0541 17.5965 29.2671 18.0972L33.6256 28.3089C31.7836 28.6834 30.0481 29.4325 28.5295 30.501C28.6084 30.6745 28.6952 30.848 28.782 31.0175C28.7899 31.0372 28.8254 31.1042 28.8254 31.1042C29.2671 31.9638 29.7799 32.8036 30.3479 33.596C32.1347 36.0878 34.5131 38.1538 37.2229 39.5732C40.0589 41.0596 43.1315 41.8166 46.358 41.8166C52.3731 41.8166 57.978 39.1198 61.7409 34.4201C62.376 33.6236 62.9558 32.776 63.4646 31.8888C63.5829 31.6799 63.7013 31.467 63.8156 31.2501C61.6739 29.3852 58.9641 28.2064 56.0453 27.9619C55.1578 27.887 54.2743 27.8239 53.3868 27.7687C55.3077 25.6554 56.7553 22.8246 56.9012 19.6901C59.9541 21.6063 63.437 22.5722 63.437 22.5722ZM51.675 21.8192C50.0025 21.8192 48.2907 20.9872 47.277 20.388C46.713 20.0528 45.9951 20.0528 45.4311 20.388C44.4174 20.9872 42.7055 21.8192 41.0331 21.8192C39.408 21.8192 38.1774 20.6206 38.1774 19.1381C38.1774 17.6596 39.4475 16.4571 41.0331 16.4571C42.1967 16.4571 43.4392 16.7055 44.4292 16.9696C45.6874 17.3048 47.0246 17.3048 48.2828 16.9696C49.2728 16.7055 50.5114 16.4571 51.6789 16.4571C53.2645 16.4571 54.5346 17.6557 54.5346 19.1381C54.5307 20.6166 53.304 21.8192 51.675 21.8192Z"
    fill="black"
  />
<path
    d="M50.4483 18.2192C49.7147 18.2192 48.8745 18.4124 48.4367 18.5268C48.2631 18.5741 48.1448 18.7397 48.1606 18.9171C48.1764 19.1103 48.3775 19.2365 48.559 19.1615C48.7956 19.063 49.1309 18.9447 49.5135 18.858C49.4346 18.9723 49.3912 19.1103 49.3912 19.2601C49.3912 19.6741 49.7502 20.0132 50.1919 20.0132C50.6337 20.0132 50.9926 19.678 50.9926 19.2601C50.9926 19.059 50.9098 18.8777 50.7717 18.7436C51.7933 18.7278 52.7518 18.6569 52.7518 18.6569L52.7281 18.4755C52.7281 18.4755 51.4936 18.2192 50.4483 18.2192Z"
    fill="black"
  />
<path
    d="M44.3973 18.5268C43.9594 18.4124 43.1154 18.2192 42.3856 18.2192C41.3404 18.2192 40.1058 18.4755 40.1058 18.4755L40.0822 18.6569C40.0822 18.6569 41.0406 18.7318 42.0622 18.7436C41.9242 18.8777 41.8413 19.059 41.8413 19.2601C41.8413 19.6741 42.2003 20.0132 42.642 20.0132C43.0838 20.0132 43.4427 19.678 43.4427 19.2601C43.4427 19.1142 43.3954 18.9762 43.3205 18.858C43.6991 18.9447 44.0344 19.063 44.275 19.1615C44.4564 19.2365 44.6536 19.1103 44.6734 18.9171C44.6891 18.7357 44.5708 18.5741 44.3973 18.5268Z"
    fill="black"
  />
</svg>
