<svg width="38" height="34" viewBox="0 0 38 34" fill="none" xmlns="http://www.w3.org/2000/svg">
<path d="M14.7925 25.65H12.3496V24.4286C12.355 19.7088 16.1798 15.884 20.8996 15.8786H25.7853C30.5051 15.884 34.3299 19.7088 34.3353 24.4286V25.65H31.8925V24.4286C31.8884 21.0574 29.1565 18.3255 25.7853 18.3214H20.8996C17.5284 18.3255 14.7965 21.0574 14.7925 24.4286V25.65ZM23.3425 14.6572C19.9696 14.6572 17.2353 11.9229 17.2353 8.55001C17.2353 5.17713 19.9696 2.44287 23.3425 2.44287C26.7153 2.44287 29.4496 5.17713 29.4496 8.55001C29.4456 11.9212 26.7137 14.6531 23.3425 14.6572ZM23.3425 4.88573C21.3187 4.88573 19.6782 6.52629 19.6782 8.55001C19.6782 10.5737 21.3187 12.2143 23.3425 12.2143C25.3662 12.2143 27.0068 10.5737 27.0068 8.55001C27.0068 6.52629 25.3662 4.88573 23.3425 4.88573Z" fill="black"/>
<g clip-path="url(#clip0_1518_805)">
<path d="M7.73549 31.6214V29.9928V28.7726C7.73885 26.3001 9.7422 24.2965 12.2146 24.2928C12.2151 24.2928 12.2155 24.2928 12.216 24.2928H17.0978C17.0983 24.2928 17.0988 24.2928 17.0992 24.2928C19.5719 24.2965 21.5754 26.3005 21.5784 28.7733V29.9928V31.6214H23.2069H25.6498H27.2784V29.9928V28.7714L27.2783 28.7695C27.2729 23.9921 23.9798 19.9851 19.5397 18.8892C21.2785 17.4712 22.3897 15.3129 22.3926 12.8947V12.8928C22.3926 8.62047 18.9292 5.15707 14.6569 5.15707C10.3846 5.15707 6.92121 8.62047 6.92121 12.8928C6.92121 15.3119 8.03161 17.4716 9.77052 18.8901C5.33227 19.9873 2.04094 23.9934 2.03549 28.7695V28.7714V29.9928V31.6214H3.66406H6.10692H7.73549ZM12.6212 12.8928C12.6212 11.7685 13.5326 10.8571 14.6569 10.8571C15.7812 10.8571 16.6926 11.7685 16.6926 12.8928C16.6926 14.0171 15.7812 14.9285 14.6569 14.9285C13.5326 14.9285 12.6212 14.0171 12.6212 12.8928Z" fill="black" stroke="#F3BD19" stroke-width="3.25714"/>
</g>
<defs>
<clipPath id="clip0_1518_805">
<rect width="29.3143" height="29.3143" fill="white" transform="translate(0 4.34277)"/>
</clipPath>
</defs>
</svg>
