<svg
  width="67"
  height="66"
  viewBox="0 0 67 66"
  fill="none"
  xmlns="http://www.w3.org/2000/svg"
>
<path
    d="M66.3901 32.7596C66.3901 34.1253 66.3084 35.4735 66.1449 36.7925C65.7186 40.2418 64.7611 43.5219 63.3539 46.5509C62.9627 47.3856 62.5423 48.2085 62.0811 49.0022C61.2344 50.4788 60.2769 51.8854 59.2201 53.2103C53.2119 60.71 43.9808 65.5133 33.6228 65.5133C22.6459 65.5133 12.9359 60.1205 6.98621 51.8387C6.04032 50.5255 5.1937 49.1365 4.45217 47.689C4.42882 47.6482 4.4113 47.6073 4.38794 47.5606C2.99247 44.8175 1.97652 41.8527 1.39848 38.7302C1.04231 36.7925 0.85547 34.7906 0.85547 32.7538C0.849632 14.6668 15.5167 0 33.6169 0C51.7172 0 66.3901 14.6668 66.3901 32.7596Z"
    fill="#EAB61F"
  />
<path
    d="M58.9057 33.4133C58.9057 33.4133 59.1802 33.4658 59.84 28.9951C57.1016 28.5224 53.1954 26.5672 49.9082 24.682C55.8287 25.3766 62.2747 23.7482 62.2747 23.7482L60.634 19.5344C57.7263 20.5849 52.7225 20.725 48.7521 20.6316C47.6018 12.6299 43.9818 5.20605 33.6179 5.20605C19.8909 5.20605 17.9933 18.2153 17.9933 28.3648C17.9933 33.3082 20.2121 37.7964 23.2074 41.0998C21.9812 41.1757 20.7551 41.2632 19.5289 41.3624L12.5457 24.9914C12.2304 24.2502 11.3721 23.9058 10.6306 24.221L9.095 24.8746C8.35347 25.1898 8.00898 26.0478 8.32428 26.789L14.7761 41.9052C12.0494 42.4597 9.48036 43.5686 7.23242 45.1502C7.3492 45.407 7.47765 45.6638 7.60611 45.9148C7.61778 45.944 7.67033 46.0432 7.67033 46.0432C8.32428 47.3155 9.08332 48.5587 9.92411 49.7318C12.5691 53.4204 16.0899 56.4786 20.1011 58.5797C24.2992 60.78 28.8476 61.9006 33.6238 61.9006C42.5279 61.9006 50.8249 57.9085 56.3951 50.9516C57.3351 49.7726 58.1934 48.5178 58.9466 47.2046C59.1218 46.8953 59.2969 46.5801 59.4663 46.2591C56.2958 43.4985 52.2846 41.7535 47.9638 41.3916C46.6501 41.2807 45.3422 41.1873 44.0285 41.1056C46.872 37.9773 49.0148 33.7868 49.2309 29.1469C53.7501 31.9834 58.9057 33.4133 58.9057 33.4133ZM41.4945 32.2985C39.0188 32.2985 36.4848 31.067 34.9842 30.1799C34.1493 29.6838 33.0866 29.6838 32.2517 30.1799C30.7511 31.067 28.217 32.2985 25.7414 32.2985C23.3358 32.2985 21.5141 30.5243 21.5141 28.3298C21.5141 26.1411 23.3942 24.361 25.7414 24.361C27.4638 24.361 29.3031 24.7287 30.7686 25.1198C32.6312 25.6159 34.6105 25.6159 36.4731 25.1198C37.9386 24.7287 39.772 24.361 41.5003 24.361C43.8475 24.361 45.7276 26.1353 45.7276 28.3298C45.7217 30.5184 43.9059 32.2985 41.4945 32.2985Z"
    fill="black"
  />
<path
    d="M39.6776 26.9699C38.5916 26.9699 37.348 27.2559 36.6999 27.4251C36.443 27.4952 36.2678 27.7403 36.2911 28.0029C36.3145 28.2889 36.6123 28.4757 36.8809 28.3648C37.2312 28.2189 37.7275 28.0438 38.2939 27.9154C38.1771 28.0847 38.1128 28.2889 38.1128 28.5107C38.1128 29.1235 38.6442 29.6255 39.2981 29.6255C39.9521 29.6255 40.4834 29.1294 40.4834 28.5107C40.4834 28.2131 40.3608 27.9446 40.1564 27.7461C41.6687 27.7228 43.0875 27.6177 43.0875 27.6177L43.0525 27.3493C43.0525 27.3493 41.2249 26.9699 39.6776 26.9699Z"
    fill="black"
  />
<path
    d="M30.7216 27.4251C30.0735 27.2559 28.824 26.9699 27.7438 26.9699C26.1966 26.9699 24.369 27.3493 24.369 27.3493L24.334 27.6177C24.334 27.6177 25.7528 27.7286 27.2651 27.7461C27.0607 27.9446 26.9381 28.2131 26.9381 28.5107C26.9381 29.1235 27.4694 29.6255 28.1234 29.6255C28.7773 29.6255 29.3086 29.1294 29.3086 28.5107C29.3086 28.2948 29.2386 28.0905 29.1276 27.9154C29.6882 28.0438 30.1845 28.2189 30.5406 28.3648C30.8092 28.4757 31.1011 28.2889 31.1303 28.0029C31.1537 27.7345 30.9785 27.4952 30.7216 27.4251Z"
    fill="black"
  />
</svg>
