<svg width="245" height="186" viewBox="0 0 245 186" fill="none" xmlns="http://www.w3.org/2000/svg">
<rect width="245" height="185" rx="10" fill="#FAFAFA"/>
<path d="M179.982 58.3901L65.4609 59.9385L67.1857 185.38L181.707 183.831L179.982 58.3901Z" fill="#E4E6E3"/>
<path d="M180.858 56.2642H66.3105V57.9608H180.858V56.2642Z" fill="#4269B7"/>
<path d="M151.25 65.9512H120.547V83.2455H151.25V65.9512Z" fill="#3F61AF"/>
<path d="M150.647 66.5532H121.039V82.9171H150.647V66.5532Z" fill="url(#paint0_linear_1301_315)"/>
<path d="M151.25 83.1357H120.547V84.2303H151.25V83.1357Z" fill="#3F61AF"/>
<path d="M151.195 69.2893L121.039 69.3988V66.4434L151.195 66.3887V69.2893Z" fill="black"/>
<path d="M138.936 66.4434H138.006V83.0262H138.936V66.4434Z" fill="#3F61AF"/>
<path d="M123.994 66.4434H121.039V83.1904H123.994V66.4434Z" fill="black"/>
<path d="M151.25 91.4004H120.547V108.695H151.25V91.4004Z" fill="#3F61AF"/>
<path d="M150.647 91.9478H121.039V108.312H150.647V91.9478Z" fill="url(#paint1_linear_1301_315)"/>
<path d="M151.25 108.585H120.547V109.68H151.25V108.585Z" fill="#3F61AF"/>
<path d="M151.195 94.8485L121.039 94.7937V91.8384L151.195 91.9478V94.8485Z" fill="black"/>
<path d="M138.936 91.8931H138.006V108.476H138.936V91.8931Z" fill="#3F61AF"/>
<path d="M123.994 91.8384H121.039V108.585H123.994V91.8384Z" fill="black"/>
<path d="M151.25 120.734H120.547V138.029H151.25V120.734Z" fill="#3F61AF"/>
<path d="M150.647 121.282H121.039V137.646H150.647V121.282Z" fill="url(#paint2_linear_1301_315)"/>
<path d="M151.25 137.919H120.547V139.014H151.25V137.919Z" fill="#3F61AF"/>
<path d="M151.195 124.073L121.039 124.128V121.227L151.195 121.118V124.073Z" fill="black"/>
<path d="M138.936 121.227H138.006V137.81H138.936V121.227Z" fill="#3F61AF"/>
<path d="M123.994 121.172H121.039V137.919H123.994V121.172Z" fill="black"/>
<path d="M184.47 51.7764H61.166V54.3486H184.47V51.7764Z" fill="#3F61AF"/>
<path d="M184.47 48.3286H61.166V49.259H184.47V48.3286Z" fill="#3F61AF"/>
<path d="M184.47 48H61.166V48.3284H184.47V48Z" fill="#3F61AF"/>
<path d="M181.788 49.2041H63.8477V51.7764H181.788V49.2041Z" fill="black"/>
<path d="M152.071 159.1H112.939V184.549H152.071V159.1Z" fill="url(#paint3_linear_1301_315)"/>
<path d="M117.427 159.1H112.939V184.549H117.427V159.1Z" fill="black"/>
<path d="M152.071 159.1H112.939V164.518H152.071V159.1Z" fill="black"/>
<path d="M133.737 159.154H132.479V184.603H133.737V159.154Z" fill="black"/>
<path opacity="0.3" d="M120.328 65.9512L114.691 71.643V88.39H146.817L151.196 83.957H120.328V65.9512Z" fill="#132751"/>
<path opacity="0.3" d="M120.328 91.2905L114.691 96.9823V113.675H146.817L151.196 109.296H120.328V91.2905Z" fill="#132751"/>
<path opacity="0.3" d="M120.328 120.899L114.691 126.591V143.283H146.817L151.196 138.905H120.328V120.899Z" fill="#132751"/>
<defs>
<linearGradient id="paint0_linear_1301_315" x1="135.866" y1="37.6918" x2="135.866" y2="105.699" gradientUnits="userSpaceOnUse">
<stop stop-color="#3F61AF"/>
<stop offset="0.9946" stop-color="#1F386B"/>
</linearGradient>
<linearGradient id="paint1_linear_1301_315" x1="135.866" y1="63.1145" x2="135.866" y2="131.127" gradientUnits="userSpaceOnUse">
<stop stop-color="#3F61AF"/>
<stop offset="0.9946" stop-color="#1F386B"/>
</linearGradient>
<linearGradient id="paint2_linear_1301_315" x1="135.866" y1="92.4601" x2="135.866" y2="160.468" gradientUnits="userSpaceOnUse">
<stop stop-color="#3F61AF"/>
<stop offset="0.9946" stop-color="#1F386B"/>
</linearGradient>
<linearGradient id="paint3_linear_1301_315" x1="132.497" y1="114.315" x2="132.497" y2="219.943" gradientUnits="userSpaceOnUse">
<stop stop-color="#3F61AF"/>
<stop offset="0.9946" stop-color="#1F386B"/>
</linearGradient>
</defs>
</svg>
