<svg width="245" height="152" viewBox="0 0 245 152" fill="none" xmlns="http://www.w3.org/2000/svg">
<path d="M0 10C0 4.47715 4.47715 0 10 0H235C240.523 0 245 4.47715 245 10V141C245 146.523 240.523 151 235 151H10C4.47715 151 0 146.523 0 141V10Z" fill="#FAFAFA"/>
<path d="M112.027 63.2441H46.7305V151.226H112.027V63.2441Z" fill="#DADFE3"/>
<path d="M198.929 63.2441H112.027V151.226H198.929V63.2441Z" fill="#DADFE3"/>
<path d="M112.027 56.8823H46.7305V64.1441H112.027V56.8823Z" fill="#DFE4E8"/>
<path d="M198.929 56.8823H112.027V64.1441H198.929V56.8823Z" fill="#B8C0C9"/>
<path d="M112.027 145.765H46.7305V151.226H112.027V145.765Z" fill="#DFE4E8"/>
<path d="M112.028 70.5059H58.3145V93.5516H112.028V70.5059Z" fill="#3F61AF"/>
<path d="M72.4773 70.5059H71.457V93.5516H72.4773V70.5059Z" fill="#3F61AF"/>
<path d="M85.6823 70.5059H84.6621V93.5516H85.6823V70.5059Z" fill="#3F61AF"/>
<path d="M98.9441 70.5059H97.9238V93.5516H98.9441V70.5059Z" fill="#3F61AF"/>
<path opacity="0.1" d="M79.3796 93.5516H64.2559L74.8185 70.5059H89.9423L79.3796 93.5516Z" fill="#F0F5F9"/>
<path opacity="0.1" d="M95.4045 93.5516H90.3633L100.926 70.5059H105.907L95.4045 93.5516Z" fill="#F0F5F9"/>
<path d="M185.006 101.474H159.139L148.516 93.5516H112.027V70.5059H185.006V101.474Z" fill="#3F61AF"/>
<path d="M121.749 70.5059H120.729V93.5516H121.749V70.5059Z" fill="#3F61AF"/>
<path d="M135.014 70.5059H133.994V93.5516H135.014V70.5059Z" fill="#3F61AF"/>
<path d="M148.278 70.5059H147.258V93.5516H148.278V70.5059Z" fill="#3F61AF"/>
<path d="M161.481 70.5059H160.461V101.474H161.481V70.5059Z" fill="#3F61AF"/>
<path d="M174.743 70.5059H173.723V101.474H174.743V70.5059Z" fill="#3F61AF"/>
<path opacity="0.1" d="M142.815 93.5516H127.691L138.254 70.5059H153.378L142.815 93.5516Z" fill="#F0F5F9"/>
<path opacity="0.1" d="M185.005 101.474H168.621L182.725 70.5059H185.005V101.474Z" fill="#F0F5F9"/>
<path opacity="0.1" d="M156.197 99.3131L152.477 96.4923L164.36 70.5059H169.341L156.197 99.3131Z" fill="#F0F5F9"/>
<path d="M112.027 63.2441H46.7305V70.506H112.027V63.2441Z" fill="#DFE4E8"/>
<path d="M198.929 63.2441H112.027V70.506H198.929V63.2441Z" fill="#B8C0C9"/>
<path d="M64.9165 129.141H56.1543V145.765H64.9165V129.141Z" fill="#3F61AF"/>
<path d="M58.4949 129.141H56.1543V145.765H58.4949V129.141Z" fill="#3F61AF"/>
<path d="M74.6372 129.141H65.875V145.765H74.6372V129.141Z" fill="#3F61AF"/>
<path d="M68.2156 129.141H65.875V145.765H68.2156V129.141Z" fill="#3F61AF"/>
<path d="M92.8813 129.141H84.1191V145.765H92.8813V129.141Z" fill="#3F61AF"/>
<path d="M86.4597 129.141H84.1191V145.765H86.4597V129.141Z" fill="#3F61AF"/>
<path d="M102.665 129.141H93.9023V145.765H102.665V129.141Z" fill="#3F61AF"/>
<path d="M96.2429 129.141H93.9023V145.765H96.2429V129.141Z" fill="#3F61AF"/>
<path d="M153.858 129.141H124.391V145.765H153.858V129.141Z" fill="#3F61AF"/>
<path d="M132.313 129.141H124.391V145.765H132.313V129.141Z" fill="#3F61AF"/>
<path d="M186.626 129.141H157.158V145.765H186.626V129.141Z" fill="#3F61AF"/>
<path d="M165.08 129.141H157.158V145.765H165.08V129.141Z" fill="#3F61AF"/>
<path d="M48.6495 48H46.7891V56.8222H48.6495V48Z" fill="#F0F5F9"/>
<path d="M112.085 48H110.225V56.8222H112.085V48Z" fill="#F0F5F9"/>
<path d="M98.4015 48H96.541V56.8222H98.4015V48Z" fill="#F0F5F9"/>
<path d="M79.257 48H77.3965V56.8222H79.257V48Z" fill="#F0F5F9"/>
<path d="M60.1105 48H58.25V56.8222H60.1105V48Z" fill="#F0F5F9"/>
<path d="M112.025 48H46.7891V49.8004H112.025V48Z" fill="#F0F5F9"/>
<path d="M112.025 52.4414H46.7891V54.2419H112.025V52.4414Z" fill="#F0F5F9"/>
<path d="M113.948 48H112.088V56.8222H113.948V48Z" fill="#DADFE3"/>
<path d="M177.321 48H175.461V56.8222H177.321V48Z" fill="#DADFE3"/>
<path d="M163.698 48H161.838V56.8222H163.698V48Z" fill="#DADFE3"/>
<path d="M144.554 48H142.693V56.8222H144.554V48Z" fill="#DADFE3"/>
<path d="M125.409 48H123.549V56.8222H125.409V48Z" fill="#DADFE3"/>
<path d="M177.324 48H112.088V49.8004H177.324V48Z" fill="#DADFE3"/>
<path d="M177.322 52.4409H112.086V54.2414H177.322V52.4409Z" fill="#DADFE3"/>
</svg>
