<svg width="245" height="126" viewBox="0 0 245 126" fill="none" xmlns="http://www.w3.org/2000/svg">
<rect width="245" height="125" rx="10" fill="#FAFAFA"/>
<path d="M176.731 76.8379H120.48V125.474H176.731V76.8379Z" fill="#D2D4D1"/>
<path d="M181.3 78.7538H102.304L95.9668 48.8354L148.533 48.9337L181.3 78.7538Z" fill="#3F61AF"/>
<path d="M180.711 77.8696H100.781V78.7539H105.989V79.8838H180.318V78.7539H181.251V78.4591C181.3 78.1153 181.006 77.8696 180.711 77.8696Z" fill="#3954A1"/>
<path d="M126.524 125.424H67.0312V79.8343L96.4583 52.8145L126.524 79.8834V125.424Z" fill="#E4E6E3"/>
<path d="M63.8379 77.8692V80.6695L67.0311 80.1782L96.4582 52.8144L126.426 79.7852L129.619 80.6695V78.164L96.6056 48L63.8379 77.8692Z" fill="#3954A1"/>
<path d="M96.6056 50.4072L63.8379 80.6695L67.0311 80.2765L96.4582 52.8144L126.524 79.8834L129.619 80.6695L96.6056 50.4072Z" fill="#3954A1"/>
</svg>
