<svg width="245" height="232" viewBox="0 0 245 232" fill="none" xmlns="http://www.w3.org/2000/svg">
<rect width="245" height="232" rx="10" fill="#FAFAFA"/>
<path d="M163.373 46.1665H66.4043V224.1H163.373V46.1665Z" fill="white"/>
<path d="M99.9497 46.4634H81.8145V134.959H99.9497V46.4634Z" fill="#3F61AF"/>
<path d="M169.568 37.5942H57.8828V46.1664H169.568V37.5942Z" fill="#E4E6E3"/>
<path d="M81.7636 46.4639H80.4258V134.811H81.7636V46.4639Z" fill="#3F61AF"/>
<path d="M119.373 46.4639H118.035V134.811H119.373V46.4639Z" fill="#3F61AF"/>
<path d="M139.639 46.4639H138.301V134.811H139.639V46.4639Z" fill="#3F61AF"/>
<path d="M100.939 46.4639H98.8086V134.811H100.939V46.4639Z" fill="#3F61AF"/>
<path d="M66.4034 37.5942H57.8809V135.009H66.4034V37.5942Z" fill="#E4E6E3"/>
<path d="M165.453 64.6484H66.4023V72.8737H165.453V64.6484Z" fill="#E4E6E3"/>
<path d="M165.453 100.771H66.4023V108.996H165.453V100.771Z" fill="#E4E6E3"/>
<path d="M171.102 37.5942H57.8809V38.7834H171.102V37.5942Z" fill="#D2D4D1"/>
<path d="M169.566 38.7832H57.8809V39.2787H169.566V38.7832Z" fill="#9FA19E"/>
<path d="M166.692 64.6484H66.3535V65.8376H166.692V64.6484Z" fill="#D2D4D1"/>
<path d="M165.354 65.8379H66.3535V66.3334H165.354V65.8379Z" fill="#9FA19E"/>
<path d="M166.692 99.0859H66.3535V100.275H166.692V99.0859Z" fill="#D2D4D1"/>
<path d="M165.354 100.275H66.3535V100.77H165.354V100.275Z" fill="#9FA19E"/>
<path d="M163.372 46.1665H66.4023V46.8107H163.372V46.1665Z" fill="#3F61AF"/>
<path d="M67.1456 46.1665H66.4023V64.6486H67.1456V46.1665Z" fill="#3F61AF"/>
<path d="M163.372 72.874H66.4023V73.6668H163.372V72.874Z" fill="#3F61AF"/>
<path d="M67.1456 72.874H66.4023V100.771H67.1456V72.874Z" fill="#3F61AF"/>
<path d="M67.1456 108.996H66.4023V135.009H67.1456V108.996Z" fill="#3F61AF"/>
<path d="M163.372 108.996H66.4023V109.937H163.372V108.996Z" fill="#3F61AF"/>
<path opacity="0.3" d="M66.4023 109.937V118.707L163.372 109.937H66.4023Z" fill="#1E3A72"/>
<path opacity="0.3" d="M66.4023 73.1216V81.8919L163.372 73.1216H66.4023Z" fill="#1E3A72"/>
<path opacity="0.3" d="M66.4023 46.3643V55.1346L163.372 46.3643H66.4023Z" fill="#1E3A72"/>
<path d="M54.9991 34.793L171.045 34.793V34.0002L54.9991 34.0002V34.793Z" fill="#3F61AF"/>
<path d="M58.4039 37.6016H59.0977V34.3808H58.4039V37.6016Z" fill="#3F61AF"/>
<path d="M169.033 37.6016H169.727V34.3808H169.033V37.6016Z" fill="#3F61AF"/>
<path d="M85.2844 39.2788H84.9375V46.1662H85.2844V39.2788Z" fill="#9FA19E"/>
<path d="M113.874 39.2788H113.527V46.1662H113.874V39.2788Z" fill="#9FA19E"/>
<path d="M142.464 39.2788H142.117V46.1662H142.464V39.2788Z" fill="#9FA19E"/>
<path d="M99.9497 143.036H81.8145V231.532H99.9497V143.036Z" fill="#3F61AF"/>
<path d="M169.568 134.167H57.8828V142.739H169.568V134.167Z" fill="#E4E6E3"/>
<path d="M81.7656 143.036H80.4277V231.384H81.7656V143.036Z" fill="#3F61AF"/>
<path d="M119.375 143.036H118.037V231.384H119.375V143.036Z" fill="#3F61AF"/>
<path d="M139.641 143.036H138.303V231.384H139.641V143.036Z" fill="#3F61AF"/>
<path d="M100.941 143.036H98.8105V231.384H100.941V143.036Z" fill="#3F61AF"/>
<path d="M66.4054 134.167H57.8828V231.582H66.4054V134.167Z" fill="#E4E6E3"/>
<path d="M165.455 161.221H66.4043V169.446H165.455V161.221Z" fill="#E4E6E3"/>
<path d="M165.455 197.343H66.4043V205.568H165.455V197.343Z" fill="#E4E6E3"/>
<path d="M171.104 134.167H57.8828V135.356H171.104V134.167Z" fill="#D2D4D1"/>
<path d="M169.568 135.355H57.8828V135.851H169.568V135.355Z" fill="#9FA19E"/>
<path d="M166.694 161.221H66.3555V162.41H166.694V161.221Z" fill="#D2D4D1"/>
<path d="M165.356 162.41H66.3555V162.906H165.356V162.41Z" fill="#9FA19E"/>
<path d="M166.694 195.658H66.3555V196.847H166.694V195.658Z" fill="#D2D4D1"/>
<path d="M165.356 196.847H66.3555V197.343H165.356V196.847Z" fill="#9FA19E"/>
<path d="M163.373 142.738H66.4043V143.382H163.373V142.738Z" fill="#3F61AF"/>
<path d="M67.1475 142.738H66.4043V161.22H67.1475V142.738Z" fill="#3F61AF"/>
<path d="M163.373 169.446H66.4043V170.239H163.373V169.446Z" fill="#3F61AF"/>
<path d="M67.1475 169.446H66.4043V197.343H67.1475V169.446Z" fill="#3F61AF"/>
<path d="M67.1475 205.568H66.4043V231.582H67.1475V205.568Z" fill="#3F61AF"/>
<path d="M163.373 205.568H66.4043V206.509H163.373V205.568Z" fill="#3F61AF"/>
<path opacity="0.3" d="M66.4043 206.509V215.23L163.373 206.509H66.4043Z" fill="#1E3A72"/>
<path opacity="0.3" d="M66.4043 169.694V178.464L163.373 169.694H66.4043Z" fill="#1E3A72"/>
<path opacity="0.3" d="M66.4043 142.937V151.657L163.373 142.937H66.4043Z" fill="#1E3A72"/>
<path d="M54.9991 131.351H171.045V130.558H54.9991V131.351Z" fill="#3F61AF"/>
<path d="M58.4039 134.16H59.0977V130.939H58.4039V134.16Z" fill="#3F61AF"/>
<path d="M169.033 134.16H169.727V130.939H169.033V134.16Z" fill="#3F61AF"/>
<path d="M85.2844 135.852H84.9375V142.739H85.2844V135.852Z" fill="#9FA19E"/>
<path d="M113.874 135.852H113.527V142.739H113.874V135.852Z" fill="#9FA19E"/>
<path d="M142.464 135.852H142.117V142.739H142.464V135.852Z" fill="#9FA19E"/>
<path d="M170.51 172.717H118.631V186.64H170.51V172.717Z" fill="url(#paint0_linear_1301_315)"/>
<path d="M185.473 199.226H118.035V231.483H185.473V199.226Z" fill="white"/>
<path d="M188.149 186.888H103.666V199.226H188.149V186.888Z" fill="#F9FBF8"/>
<path d="M173.284 160.379H103.666V172.717H173.284V160.379Z" fill="#F9FBF8"/>
<path d="M118.63 169.1H103.666V199.176H118.63V169.1Z" fill="#F9FBF8"/>
<path d="M118.035 199.226H107.184V231.681H118.035V199.226Z" fill="#D2D4D1"/>
<path d="M189.882 186.641H115.756V187.879H189.882V186.641Z" fill="#D2D4D1"/>
<path d="M188.149 188.127H116.599L116.104 187.83H188.149V188.127Z" fill="#9FA19E"/>
<path d="M159.758 188.127H159.609V199.177H159.758V188.127Z" fill="#9FA19E"/>
<path d="M131.364 188.127H131.215V199.177H131.364V188.127Z" fill="#9FA19E"/>
<path d="M131.364 160.379H131.215V172.717H131.364V160.379Z" fill="#9FA19E"/>
<path d="M159.608 160.379H159.459V172.717H159.608V160.379Z" fill="#9FA19E"/>
<path d="M131.315 199.226H127.252V231.681H131.315V199.226Z" fill="#A5AEB5"/>
<path d="M163.77 199.226H159.707V231.681H163.77V199.226Z" fill="#A5AEB5"/>
<path d="M159.706 172.717H131.215V186.64H159.706V172.717Z" fill="#3F61AF"/>
<path d="M159.706 172.717H131.215V176.185H159.706V172.717Z" fill="#162D59"/>
<path d="M159.706 199.028H131.215V231.632H159.706V199.028Z" fill="#3F61AF"/>
<path d="M159.706 199.028H131.215V204.032H159.706V199.028Z" fill="#162D59"/>
<path d="M164.909 199.226H163.77V231.681H164.909V199.226Z" fill="#3F61AF"/>
<path d="M185.474 199.474H163.672V231.186H185.474V199.474Z" fill="#3F61AF"/>
<path d="M186.861 199.226H185.523V231.681H186.861V199.226Z" fill="#F9FBF8"/>
<path d="M170.509 172.717H159.707V174.005H170.509V172.717Z" fill="#3F61AF"/>
<path d="M170.509 179.406H159.707V180.695H170.509V179.406Z" fill="#3F61AF"/>
<path d="M185.473 199.226H163.869V200.514H185.473V199.226Z" fill="#3F61AF"/>
<path d="M131.365 172.717H118.631V174.005H131.365V172.717Z" fill="#3F61AF"/>
<path d="M131.365 179.406H118.631V180.695H131.365V179.406Z" fill="#3F61AF"/>
<path d="M119.622 172.717H118.631V186.64H119.622V172.717Z" fill="#3F61AF"/>
<path d="M127.202 199.028H107.184V200.861H127.202V199.028Z" fill="#3F61AF"/>
<path d="M190.28 183.023H118.631V183.816H190.28V183.023Z" fill="#3F61AF"/>
<path d="M186.911 183.42H186.217V186.641H186.911V183.42Z" fill="#3F61AF"/>
<path opacity="0.3" d="M170.51 172.717L118.631 183.023V172.717H170.51Z" fill="#1E3A72"/>
<defs>
<linearGradient id="paint0_linear_1301_315" x1="144.552" y1="156.252" x2="144.552" y2="204.753" gradientUnits="userSpaceOnUse">
<stop stop-color="white"/>
<stop offset="0.9946" stop-color="white"/>
</linearGradient>
</defs>
</svg>
