<svg width="28" height="28" viewBox="0 0 28 28" fill="none" xmlns="http://www.w3.org/2000/svg">
<path d="M14.0039 27.5613C10.3139 27.5613 9.87891 27.5418 8.43891 27.4788C7.31596 27.4419 6.20756 27.2136 5.16141 26.8038C3.35137 26.0994 1.92012 24.6676 1.21641 22.8573C0.822366 21.8074 0.609833 20.6981 0.587906 19.5768C0.503906 18.1398 0.503906 17.6688 0.503906 14.0073C0.503906 10.3068 0.523406 9.87482 0.587906 8.44232C0.610313 7.32261 0.822838 6.21484 1.21641 5.16632C1.91935 3.35362 3.35293 1.92058 5.16591 1.21832C6.21387 0.822628 7.32193 0.609541 8.44191 0.588324C9.87441 0.507324 10.3454 0.507324 14.0039 0.507324C17.7239 0.507324 18.1514 0.526824 19.5689 0.588324C20.6918 0.609724 21.8028 0.822789 22.8539 1.21832C24.6664 1.92138 26.0997 3.35414 26.8034 5.16632C27.2041 6.23011 27.4177 7.3552 27.4349 8.49182C27.5189 9.92882 27.5189 10.3983 27.5189 14.0583C27.5189 17.7183 27.4979 18.1983 27.4349 19.6188C27.4126 20.7411 27.1995 21.8515 26.8049 22.9023C26.0994 24.7139 24.666 26.1462 22.8539 26.8503C21.8043 27.2436 20.6956 27.4561 19.5749 27.4788C18.1424 27.5613 17.6729 27.5613 14.0039 27.5613ZM13.9529 2.88182C10.2839 2.88182 9.90291 2.89982 8.47041 2.96432C7.61538 2.97565 6.76863 3.13344 5.96691 3.43082C4.78304 3.88384 3.84625 4.81681 3.38841 5.99882C3.08873 6.80927 2.93092 7.66529 2.92191 8.52932C2.84241 9.98282 2.84241 10.3638 2.84241 14.0073C2.84241 17.6073 2.85591 18.0438 2.92191 19.4883C2.93533 20.3436 3.09305 21.1905 3.38841 21.9933C3.84692 23.1746 4.78355 24.1068 5.96691 24.5598C6.76808 24.8592 7.61518 25.017 8.47041 25.0263C9.92241 25.1103 10.3049 25.1103 13.9529 25.1103C17.6324 25.1103 18.0134 25.0923 19.4339 25.0263C20.2895 25.0159 21.1369 24.8581 21.9389 24.5598C23.1156 24.1029 24.0463 23.1728 24.5039 21.9963C24.803 21.1852 24.9608 20.3288 24.9704 19.4643H24.9869C25.0514 18.0303 25.0514 17.6478 25.0514 13.9833C25.0514 10.3188 25.0349 9.93332 24.9704 8.50082C24.957 7.6465 24.7992 6.80059 24.5039 5.99882C24.0473 4.82068 23.1165 3.88876 21.9389 3.43082C21.1371 3.13194 20.2896 2.97411 19.4339 2.96432C17.9834 2.88182 17.6039 2.88182 13.9529 2.88182ZM14.0039 20.9358C11.1989 20.9376 8.66903 19.2494 7.5942 16.6585C6.51937 14.0676 7.11127 11.0843 9.09385 9.10002C11.0764 7.11571 14.0592 6.52123 16.651 7.59382C19.2429 8.66641 20.9333 11.1948 20.9339 13.9998C20.9298 17.8264 17.8305 20.9284 14.0039 20.9358ZM14.0039 9.49682C11.5186 9.49682 9.50391 11.5115 9.50391 13.9968C9.50391 16.4821 11.5186 18.4968 14.0039 18.4968C16.4892 18.4968 18.5039 16.4821 18.5039 13.9968C18.4981 11.5139 16.4868 9.5026 14.0039 9.49682ZM21.2039 8.42733C20.312 8.42401 19.5913 7.69921 19.5929 6.80734C19.5946 5.91547 20.318 5.19334 21.2099 5.19334C22.1018 5.19334 22.8252 5.91545 22.8269 6.80732C22.8273 7.23762 22.6563 7.65036 22.3518 7.95434C22.0473 8.25832 21.6342 8.42852 21.2039 8.42733Z" fill="white"/>
</svg>
