<svg width="138" height="101" viewBox="0 0 138 101" fill="none" xmlns="http://www.w3.org/2000/svg">
<g clip-path="url(#clip0_1372_821)">
<path d="M101.39 32.7596C101.39 34.1253 101.308 35.4735 101.145 36.7925C100.719 40.2418 99.7611 43.5219 98.3539 46.5509C97.9627 47.3856 97.5423 48.2085 97.0811 49.0022C96.2344 50.4788 95.2769 51.8854 94.2201 53.2103C88.2119 60.71 78.9808 65.5133 68.6228 65.5133C57.6459 65.5133 47.9359 60.1205 41.9862 51.8387C41.0403 50.5255 40.1937 49.1365 39.4522 47.689C39.4288 47.6482 39.4113 47.6073 39.3879 47.5606C37.9925 44.8175 36.9765 41.8527 36.3985 38.7302C36.0423 36.7925 35.8555 34.7906 35.8555 32.7538C35.8496 14.6668 50.5167 0 68.6169 0C86.7172 0 101.39 14.6668 101.39 32.7596Z" fill="#EAB61F"/>
<path d="M0 87.639V79.2113C0 78.7269 0.122615 78.2775 0.373683 77.8689C0.624751 77.4604 0.951723 77.1277 1.36044 76.8826C1.76915 76.6316 2.22458 76.509 2.72672 76.509H8.89248V79.2346H2.84349C2.82014 79.2346 2.79094 79.2463 2.76759 79.2755C2.74423 79.2988 2.72672 79.328 2.72672 79.3513V87.6448H0V87.639Z" fill="white"/>
<path d="M11.5792 87.2655C11.1705 87.0145 10.8377 86.6877 10.5924 86.2792C10.3414 85.8706 10.2188 85.4212 10.2188 84.9368V79.2171C10.2188 78.7327 10.3414 78.2833 10.5924 77.8748C10.8435 77.4662 11.1705 77.1335 11.5792 76.8884C11.9879 76.6375 12.4375 76.5149 12.9221 76.5149H18.8018C19.3039 76.5149 19.7535 76.6375 20.1681 76.8884C20.5768 77.1394 20.9037 77.4662 21.149 77.8748C21.3942 78.2833 21.511 78.7327 21.511 79.2171V83.4602H12.9455V84.8025C12.9455 84.8259 12.9571 84.8551 12.9863 84.8784C13.0097 84.9018 13.0389 84.9193 13.0622 84.9193H21.511V87.6449H12.928C12.4375 87.639 11.9879 87.5165 11.5792 87.2655ZM12.9455 81.0206H18.7843V79.3514C18.7843 79.328 18.7726 79.2988 18.7434 79.2755C18.72 79.2522 18.6908 79.2346 18.6675 79.2346H13.0622C13.0389 79.2346 13.0097 79.2463 12.9863 79.2755C12.963 79.2988 12.9455 79.328 12.9455 79.3514V81.0206Z" fill="white"/>
<path d="M24.4054 87.2656C23.9966 87.0146 23.6638 86.6878 23.4186 86.2792C23.1675 85.8707 23.0449 85.4213 23.0449 84.9369V72.8439H25.7892V84.8026C25.7892 84.826 25.8008 84.8551 25.83 84.8785C25.8534 84.9018 25.8826 84.9193 25.9059 84.9193H28.0955V87.6449H25.7541C25.2637 87.6391 24.8199 87.5165 24.4054 87.2656Z" fill="white"/>
<path d="M30.8995 87.2655C30.4908 87.0145 30.158 86.6877 29.9127 86.2792C29.6617 85.8706 29.5391 85.4212 29.5391 84.9368V79.2171C29.5391 78.7327 29.6617 78.2833 29.9127 77.8748C30.1638 77.4662 30.4908 77.1335 30.8995 76.8884C31.3082 76.6375 31.7578 76.5149 32.2424 76.5149H38.1163C38.6184 76.5149 39.068 76.6375 39.4825 76.8884C39.8912 77.1394 40.2182 77.4662 40.4634 77.8748C40.7087 78.2833 40.8255 78.7327 40.8255 79.2171V84.9368C40.8255 85.4212 40.7028 85.8706 40.4634 86.2792C40.2182 86.6877 39.8912 87.0204 39.4825 87.2655C39.0738 87.5165 38.6184 87.639 38.1163 87.639H32.2424C31.7578 87.639 31.3082 87.5165 30.8995 87.2655ZM32.3767 84.9134H37.982C38.0053 84.9134 38.0345 84.9018 38.0579 84.8726C38.0812 84.8492 38.0987 84.8201 38.0987 84.7967V79.3455C38.0987 79.3222 38.0871 79.293 38.0579 79.2697C38.0345 79.2463 38.0053 79.2288 37.982 79.2288H32.3767C32.3534 79.2288 32.3242 79.2405 32.3008 79.2697C32.2775 79.293 32.2599 79.3222 32.2599 79.3455V84.7967C32.2599 84.8201 32.2716 84.8492 32.3008 84.8726C32.33 84.9018 32.3534 84.9134 32.3767 84.9134Z" fill="white"/>
<path d="M45.092 87.639C44.5899 87.639 44.1403 87.5164 43.7257 87.2655C43.3112 87.0145 42.99 86.6877 42.7448 86.2791C42.4996 85.8706 42.3828 85.4212 42.3828 84.9368V80.6937H50.9483V79.3513C50.9483 79.328 50.9366 79.2988 50.9074 79.2755C50.8841 79.2521 50.8549 79.2346 50.8315 79.2346H42.3828V76.509H50.9658C51.468 76.509 51.9176 76.6316 52.3321 76.8826C52.7408 77.1335 53.0678 77.4604 53.313 77.8689C53.5583 78.2775 53.675 78.7269 53.675 79.2113V87.639H45.092ZM45.2263 84.9134H50.9483V83.1275H45.1095V84.7967C45.1095 84.82 45.1212 84.8492 45.1504 84.8726C45.1738 84.9017 45.1971 84.9134 45.2263 84.9134Z" fill="white"/>
<path d="M56.5011 87.2655C56.0924 87.0146 55.7654 86.6877 55.5202 86.2792C55.275 85.8706 55.1582 85.4212 55.1582 84.9368V79.2172C55.1582 78.7327 55.2808 78.2833 55.5202 77.8748C55.7654 77.4663 56.0924 77.1336 56.5011 76.8885C56.9098 76.6375 57.3711 76.5149 57.8849 76.5149H63.7412V72.8672H66.468V87.6507H57.8849C57.3711 87.6391 56.9098 87.5165 56.5011 87.2655ZM58.0134 84.9135H63.6186C63.642 84.9135 63.6712 84.9018 63.6945 84.8726C63.7179 84.8493 63.7354 84.8201 63.7354 84.7967V79.3456C63.7354 79.3222 63.7237 79.293 63.6945 79.2697C63.6712 79.2463 63.642 79.2288 63.6186 79.2288H58.0134C57.99 79.2288 57.9608 79.2405 57.9375 79.2697C57.9141 79.293 57.8966 79.3222 57.8966 79.3456V84.7967C57.8966 84.8201 57.9083 84.8493 57.9375 84.8726C57.9667 84.9018 57.99 84.9135 58.0134 84.9135Z" fill="white"/>
<path d="M68.541 87.6391V75.5636C68.541 75.0792 68.6636 74.6298 68.9147 74.2213C69.1658 73.8127 69.4927 73.48 69.9015 73.2349C70.3102 72.984 70.7656 72.8614 71.2677 72.8614H75.5125V75.6045H71.3845C71.3612 75.6045 71.332 75.6162 71.3086 75.6453C71.2853 75.6687 71.2677 75.6979 71.2677 75.7212V76.5091H75.5125V79.2347H71.2677V87.6449H68.541V87.6391Z" fill="#EAB61F"/>
<path d="M76.873 87.639V79.2113C76.873 78.7269 76.9957 78.2775 77.2467 77.8689C77.4978 77.4604 77.8248 77.1277 78.2335 76.8826C78.6422 76.6316 79.0976 76.509 79.5998 76.509H85.7655V79.2346H79.7165C79.6932 79.2346 79.664 79.2463 79.6406 79.2755C79.6173 79.2988 79.5998 79.328 79.5998 79.3513V87.6448H76.873V87.639Z" fill="#EAB61F"/>
<path d="M88.4581 87.2655C88.0494 87.0145 87.7166 86.6877 87.4713 86.2792C87.2203 85.8706 87.0977 85.4212 87.0977 84.9368V79.2171C87.0977 78.7327 87.2203 78.2833 87.4713 77.8748C87.7224 77.4662 88.0494 77.1335 88.4581 76.8884C88.8668 76.6375 89.3164 76.5149 89.801 76.5149H95.6748C96.177 76.5149 96.6266 76.6375 97.0411 76.8884C97.4498 77.1394 97.7768 77.4662 98.022 77.8748C98.2673 78.2833 98.3841 78.7327 98.3841 79.2171V83.4602H89.8185V84.8025C89.8185 84.8259 89.8302 84.8551 89.8594 84.8784C89.8828 84.9018 89.912 84.9193 89.9353 84.9193H98.3841V87.6449H89.801C89.3164 87.639 88.8668 87.5165 88.4581 87.2655ZM89.8185 81.0206H95.6573V79.3514C95.6573 79.328 95.6457 79.2988 95.6165 79.2755C95.5931 79.2522 95.5639 79.2346 95.5406 79.2346H89.9353C89.912 79.2346 89.8828 79.2463 89.8594 79.2755C89.8361 79.2988 89.8185 79.328 89.8185 79.3514V81.0206Z" fill="#EAB61F"/>
<path d="M100.404 72.8614H103.131V75.6045H100.404V72.8614ZM100.404 76.5091H103.131V87.6449H100.404V76.5091Z" fill="#EAB61F"/>
<path d="M106.335 92.0397V89.2966H112.998C113.021 89.2966 113.05 89.2849 113.073 89.2557C113.097 89.2324 113.114 89.2032 113.114 89.1799V87.6449H107.258C106.756 87.6449 106.306 87.5223 105.892 87.2714C105.483 87.0204 105.15 86.6936 104.905 86.285C104.654 85.8765 104.531 85.4271 104.531 84.9426V79.223C104.531 78.7386 104.654 78.2892 104.905 77.8806C105.156 77.4721 105.483 77.1394 105.892 76.8943C106.3 76.6433 106.756 76.5208 107.258 76.5208H113.132C113.634 76.5208 114.084 76.6433 114.498 76.8943C114.907 77.1452 115.234 77.4721 115.479 77.8806C115.724 78.2892 115.847 78.7386 115.847 79.223V89.3199C115.847 89.8335 115.724 90.2946 115.479 90.7032C115.234 91.1117 114.907 91.4385 114.498 91.6837C114.089 91.9288 113.634 92.0455 113.132 92.0455H106.335V92.0397ZM107.375 84.9135H113.003C113.027 84.9135 113.056 84.9018 113.079 84.8726C113.103 84.8493 113.12 84.8201 113.12 84.7967V79.3456C113.12 79.3222 113.108 79.293 113.079 79.2697C113.056 79.2463 113.027 79.2288 113.003 79.2288H107.375C107.351 79.2288 107.322 79.2405 107.299 79.2697C107.275 79.293 107.258 79.3222 107.258 79.3456V84.7967C107.258 84.8201 107.27 84.8493 107.299 84.8726C107.322 84.9018 107.346 84.9135 107.375 84.9135Z" fill="#EAB61F"/>
<path d="M117.896 87.6391V72.8555H120.623V76.5033H126.48C126.964 76.5033 127.414 76.6258 127.822 76.8768C128.231 77.1278 128.564 77.4546 128.809 77.8631C129.06 78.2717 129.183 78.7211 129.183 79.2055V87.6332H126.456V79.3397C126.456 79.3164 126.444 79.2872 126.415 79.2639C126.392 79.2405 126.363 79.223 126.339 79.223H120.734C120.711 79.223 120.682 79.2347 120.658 79.2639C120.635 79.2872 120.617 79.3164 120.617 79.3397V87.6332H117.896V87.6391Z" fill="#EAB61F"/>
<path d="M132.067 87.2655C131.659 87.0146 131.326 86.6877 131.081 86.2792C130.83 85.8706 130.707 85.4212 130.707 84.9368V73.1473H133.434V76.5091H137.679V79.2347H133.434V84.8026C133.434 84.8259 133.445 84.8551 133.475 84.8785C133.498 84.9018 133.527 84.9193 133.551 84.9193H137.679V87.6449H133.434C132.932 87.6391 132.482 87.5165 132.067 87.2655Z" fill="#EAB61F"/>
<path d="M40.7906 99.4169C40.6739 99.4169 40.5629 99.3877 40.4637 99.3293C40.3644 99.271 40.2827 99.1892 40.2243 99.09C40.1659 98.9908 40.1367 98.8799 40.1367 98.7632V97.6251H42.8926V96.9306C42.8926 96.8722 42.8693 96.8255 42.8284 96.7788C42.7875 96.738 42.735 96.7146 42.6766 96.7146H40.1309V96.2711H42.6766C42.7992 96.2711 42.9101 96.3002 43.0094 96.3586C43.1086 96.417 43.1904 96.4987 43.2488 96.5979C43.3072 96.6971 43.3364 96.808 43.3364 96.9247V99.411H40.7906V99.4169ZM40.7906 98.9733H42.8868V98.0687H40.5804V98.7632C40.5804 98.8216 40.6038 98.8682 40.6447 98.9149C40.6855 98.95 40.7323 98.9733 40.7906 98.9733Z" fill="black"/>
<path d="M45.4023 99.4168V95.5065H45.8403V98.9791H49.3027V99.4168H45.4023Z" fill="black"/>
<path d="M50.2535 99.4169C50.1368 99.4169 50.0258 99.3877 49.9266 99.3293C49.8273 99.271 49.7456 99.1892 49.6872 99.09C49.6288 98.9908 49.5996 98.8799 49.5996 98.7632V97.6251H52.3555V96.9306C52.3555 96.8722 52.3321 96.8255 52.2913 96.7788C52.2504 96.738 52.1979 96.7146 52.1395 96.7146H49.5938V96.2711H52.1395C52.2621 96.2711 52.373 96.3002 52.4723 96.3586C52.5715 96.417 52.6533 96.4987 52.7117 96.5979C52.7701 96.6971 52.7992 96.808 52.7992 96.9247V99.411H50.2535V99.4169ZM50.2535 98.9733H52.3497V98.0687H50.0375V98.7632C50.0375 98.8216 50.0609 98.8682 50.1017 98.9149C50.1426 98.95 50.1951 98.9733 50.2535 98.9733Z" fill="black"/>
<path d="M53.291 99.4169V96.2711H55.8426C55.9593 96.2711 56.0703 96.3002 56.1695 96.3586C56.2688 96.417 56.3505 96.4987 56.4089 96.5979C56.4673 96.6971 56.4965 96.808 56.4965 96.9247V99.411H56.0528V96.9247C56.0528 96.8664 56.0294 96.8197 55.9885 96.773C55.9477 96.7321 55.8951 96.7088 55.8367 96.7088H53.9508C53.8924 96.7088 53.8399 96.7321 53.799 96.773C53.7581 96.8138 53.7348 96.8664 53.7348 96.9247V99.411H53.291V99.4169Z" fill="black"/>
<path d="M57.2254 99.3235C57.1261 99.2651 57.0444 99.1834 56.986 99.0842C56.9276 98.985 56.8984 98.8741 56.8984 98.7573V96.9247C56.8984 96.808 56.9276 96.6971 56.986 96.5979C57.0444 96.4987 57.1261 96.4169 57.2254 96.3586C57.3247 96.3002 57.4356 96.271 57.5582 96.271H59.6544V95.2438H60.0981V99.4168H57.5524C57.4356 99.4168 57.3247 99.3877 57.2254 99.3235ZM57.5582 98.9733H59.4442C59.5025 98.9733 59.5493 98.9499 59.596 98.9091C59.6368 98.8682 59.6602 98.8157 59.6602 98.7573V96.9247C59.6602 96.8663 59.6368 96.8197 59.596 96.773C59.5551 96.7321 59.5025 96.7088 59.4442 96.7088H57.5582C57.4998 96.7088 57.4531 96.7321 57.4064 96.773C57.3655 96.8138 57.3422 96.8663 57.3422 96.9247V98.7573C57.3422 98.8157 57.3655 98.8624 57.4064 98.9091C57.4531 98.9499 57.4998 98.9733 57.5582 98.9733Z" fill="black"/>
<path d="M60.9813 99.3235C60.882 99.2651 60.8003 99.1834 60.7419 99.0842C60.6835 98.9849 60.6543 98.8741 60.6543 98.7573V98.7165H61.098V98.7573C61.098 98.8157 61.1214 98.8624 61.1623 98.9091C61.2031 98.9499 61.2557 98.9733 61.3141 98.9733H63.2C63.2584 98.9733 63.3051 98.9499 63.3518 98.9091C63.3927 98.8682 63.416 98.8157 63.416 98.7573V98.2729C63.416 98.2145 63.3927 98.1679 63.3518 98.1212C63.3109 98.0803 63.2584 98.057 63.2 98.057H61.3082C61.1915 98.057 61.0805 98.0278 60.9813 97.9694C60.882 97.9111 60.8003 97.8293 60.7419 97.7301C60.6835 97.6309 60.6543 97.52 60.6543 97.4033V96.9189C60.6543 96.8021 60.6835 96.6913 60.7419 96.592C60.8003 96.4928 60.882 96.4111 60.9813 96.3527C61.0805 96.2944 61.1915 96.2652 61.3082 96.2652H63.1942C63.3168 96.2652 63.4277 96.2944 63.527 96.3527C63.6262 96.4111 63.708 96.4928 63.7664 96.592C63.8248 96.6913 63.854 96.8021 63.854 96.9189V96.9597H63.4044V96.9189C63.4044 96.8605 63.381 96.8138 63.3401 96.7671C63.2993 96.7263 63.2467 96.7029 63.1883 96.7029H61.3082C61.2499 96.7029 61.2031 96.7263 61.1564 96.7671C61.1156 96.808 61.0922 96.8605 61.0922 96.9189V97.4033C61.0922 97.4617 61.1156 97.5083 61.1564 97.555C61.1973 97.5959 61.2499 97.6192 61.3082 97.6192H63.1942C63.3168 97.6192 63.4277 97.6484 63.527 97.7068C63.6262 97.7651 63.708 97.8469 63.7664 97.9461C63.8248 98.0453 63.854 98.1562 63.854 98.2729V98.7573C63.854 98.8741 63.8248 98.9849 63.7664 99.0842C63.708 99.1834 63.6262 99.2651 63.527 99.3235C63.4277 99.3818 63.3168 99.411 63.1942 99.411H61.3082C61.1915 99.4168 61.0805 99.3877 60.9813 99.3235Z" fill="black"/>
<path d="M64.7235 99.3235C64.6242 99.2651 64.5425 99.1834 64.4899 99.0842C64.4315 98.985 64.4023 98.8741 64.4023 98.7574V95.238H64.8461V96.2652H66.2065V96.7088H64.8461V98.7515C64.8461 98.8099 64.8694 98.8566 64.9103 98.9033C64.9512 98.9441 65.0037 98.9675 65.0621 98.9675H66.2124V99.411H65.0621C64.9337 99.4169 64.8227 99.3877 64.7235 99.3235Z" fill="black"/>
<path d="M67.275 99.4169C67.1582 99.4169 67.0473 99.3877 66.948 99.3293C66.8488 99.271 66.767 99.1892 66.7087 99.09C66.6503 98.9908 66.6211 98.8799 66.6211 98.7632V97.6251H69.377V96.9306C69.377 96.8722 69.3536 96.8255 69.3128 96.7788C69.2719 96.738 69.2193 96.7146 69.1609 96.7146H66.6152V96.2711H69.1609C69.2836 96.2711 69.3945 96.3002 69.4938 96.3586C69.593 96.417 69.6748 96.4987 69.7332 96.5979C69.7915 96.6971 69.8207 96.808 69.8207 96.9247V99.411H67.275V99.4169ZM67.275 98.9733H69.3711V98.0687H67.059V98.7632C67.059 98.8216 67.0823 98.8682 67.1232 98.9149C67.1641 98.95 67.2166 98.9733 67.275 98.9733Z" fill="black"/>
<path d="M70.3516 99.4169V96.9306C70.3516 96.8139 70.3808 96.703 70.4391 96.6038C70.4975 96.5045 70.5793 96.4228 70.6785 96.3645C70.7778 96.3061 70.8887 96.2769 71.0055 96.2769H72.7747V96.7205H71.0055C70.9471 96.7205 70.9004 96.7438 70.8537 96.7847C70.8128 96.8255 70.7895 96.8781 70.7895 96.9364V99.4227H70.3516V99.4169Z" fill="black"/>
<path d="M74.6367 96.1602C74.6367 96.0434 74.6659 95.9325 74.7243 95.8333C74.7827 95.7341 74.8586 95.6582 74.9579 95.5999C75.0571 95.5415 75.168 95.5123 75.2848 95.5123H77.8889C78.0057 95.5123 78.1166 95.5415 78.2159 95.5999C78.3152 95.6582 78.3911 95.7341 78.4494 95.8333C78.5078 95.9325 78.537 96.0434 78.537 96.1602V99.411H78.0991V97.987H75.0746V99.411H74.6367V96.1602ZM78.105 97.5492V96.1602C78.105 96.1018 78.0816 96.0551 78.0407 96.0084C77.9999 95.9676 77.9473 95.9442 77.8889 95.9442H75.2848C75.2264 95.9442 75.1797 95.9676 75.133 96.0084C75.0921 96.0493 75.0688 96.1018 75.0688 96.1602V97.5492H78.105Z" fill="black"/>
<path d="M79.6581 100.66V100.211H81.62C81.6784 100.211 81.7251 100.187 81.7718 100.146C81.8127 100.106 81.836 100.053 81.836 99.9947V99.4169H79.7399C79.6231 99.4169 79.5122 99.3877 79.4129 99.3293C79.3136 99.271 79.2319 99.1893 79.1735 99.0901C79.1151 98.9908 79.0859 98.8799 79.0859 98.7632V96.9306C79.0859 96.8139 79.1151 96.703 79.1735 96.6038C79.2319 96.5045 79.3136 96.4228 79.4129 96.3645C79.5122 96.3061 79.6231 96.2769 79.7399 96.2769H81.6258C81.7484 96.2769 81.8594 96.3061 81.9586 96.3645C82.0579 96.4228 82.1338 96.5045 82.1922 96.6038C82.2506 96.703 82.2798 96.8139 82.2798 96.9306V100.001C82.2798 100.123 82.2506 100.234 82.1922 100.333C82.1338 100.432 82.0579 100.514 81.9586 100.572C81.8594 100.631 81.7484 100.66 81.6258 100.66H79.6581ZM79.734 98.9733H81.62C81.6784 98.9733 81.7251 98.95 81.7718 98.9091C81.8127 98.8683 81.836 98.8157 81.836 98.7574V96.9248C81.836 96.8664 81.8127 96.8197 81.7718 96.773C81.7309 96.7322 81.6784 96.7088 81.62 96.7088H79.734C79.6757 96.7088 79.6289 96.7322 79.5822 96.773C79.5414 96.8139 79.518 96.8664 79.518 96.9248V98.7574C79.518 98.8157 79.5414 98.8624 79.5822 98.9091C79.6289 98.95 79.6757 98.9733 79.734 98.9733Z" fill="black"/>
<path d="M83.0867 99.3235C82.9875 99.2651 82.9057 99.1834 82.8473 99.0842C82.789 98.985 82.7598 98.8741 82.7598 98.7574V96.9247C82.7598 96.808 82.789 96.6971 82.8473 96.5979C82.9057 96.4987 82.9875 96.417 83.0867 96.3586C83.186 96.3002 83.2969 96.2711 83.4137 96.2711H85.2996C85.4223 96.2711 85.5332 96.3002 85.6324 96.3586C85.7317 96.417 85.8134 96.4987 85.8718 96.5979C85.9302 96.6971 85.9594 96.808 85.9594 96.9247V98.0628H83.2035V98.7574C83.2035 98.8157 83.2269 98.8624 83.2677 98.9091C83.3086 98.95 83.3612 98.9733 83.4195 98.9733H85.9711V99.4169H83.4195C83.2969 99.4169 83.186 99.3877 83.0867 99.3235ZM83.2035 97.6193H85.5157V96.9247C85.5157 96.8664 85.4923 96.8197 85.4514 96.773C85.4106 96.7321 85.358 96.7088 85.2996 96.7088H83.4137C83.3553 96.7088 83.3086 96.7321 83.2619 96.773C83.221 96.8138 83.1977 96.8664 83.1977 96.9247V97.6193H83.2035Z" fill="black"/>
<path d="M86.5254 99.4169V96.2711H89.0769C89.1937 96.2711 89.3047 96.3002 89.4039 96.3586C89.5032 96.417 89.5849 96.4987 89.6433 96.5979C89.7017 96.6971 89.7309 96.808 89.7309 96.9247V99.411H89.2871V96.9247C89.2871 96.8664 89.2638 96.8197 89.2229 96.773C89.182 96.7321 89.1295 96.7088 89.0711 96.7088H87.1852C87.1268 96.7088 87.0742 96.7321 87.0334 96.773C86.9925 96.8138 86.9691 96.8664 86.9691 96.9247V99.411H86.5254V99.4169Z" fill="black"/>
<path d="M90.5067 99.3235C90.4074 99.2651 90.3257 99.1834 90.2673 99.0842C90.2089 98.985 90.1797 98.8741 90.1797 98.7574V96.9247C90.1797 96.808 90.2089 96.6971 90.2673 96.5979C90.3257 96.4987 90.4074 96.417 90.5067 96.3586C90.6059 96.3002 90.7169 96.2711 90.8336 96.2711H93.3735V96.7146H90.8336C90.7752 96.7146 90.7285 96.738 90.6818 96.7788C90.641 96.8197 90.6176 96.8722 90.6176 96.9306V98.7632C90.6176 98.8216 90.641 98.8682 90.6818 98.9149C90.7227 98.9558 90.7752 98.9791 90.8336 98.9791H93.3852V99.4227H90.8336C90.711 99.4169 90.6059 99.3877 90.5067 99.3235Z" fill="black"/>
<path d="M94.4784 100.66V100.211H96.4403C96.4987 100.211 96.5454 100.187 96.5921 100.146C96.633 100.106 96.6563 100.053 96.6563 99.9947V99.411H94.5602C94.4434 99.411 94.3325 99.3818 94.2332 99.3235C94.134 99.2651 94.0522 99.1834 93.9938 99.0842C93.9354 98.985 93.9062 98.8741 93.9062 98.7573V96.2827H94.35V98.7573C94.35 98.8157 94.3734 98.8624 94.4142 98.9091C94.4551 98.9499 94.5076 98.9733 94.566 98.9733H96.452C96.5104 98.9733 96.5571 98.9499 96.6038 98.9091C96.6446 98.8682 96.668 98.8157 96.668 98.7573V96.2827H97.1117V100C97.1117 100.123 97.0825 100.234 97.0242 100.333C96.9658 100.432 96.8899 100.514 96.7906 100.572C96.6913 100.631 96.5804 100.66 96.4578 100.66H94.4784Z" fill="black"/>
<path d="M93.9057 33.4133C93.9057 33.4133 94.1802 33.4658 94.84 28.9951C92.1016 28.5224 88.1954 26.5672 84.9082 24.682C90.8287 25.3766 97.2747 23.7482 97.2747 23.7482L95.634 19.5344C92.7263 20.5849 87.7225 20.725 83.7521 20.6316C82.6018 12.6299 78.9818 5.20605 68.6179 5.20605C54.8909 5.20605 52.9933 18.2153 52.9933 28.3648C52.9933 33.3082 55.2121 37.7964 58.2074 41.0998C56.9812 41.1757 55.7551 41.2632 54.5289 41.3624L47.5457 24.9914C47.2304 24.2502 46.3721 23.9058 45.6306 24.221L44.095 24.8746C43.3535 25.1898 43.009 26.0478 43.3243 26.789L49.7761 41.9052C47.0494 42.4597 44.4804 43.5686 42.2324 45.1502C42.3492 45.407 42.4777 45.6638 42.6061 45.9148C42.6178 45.944 42.6703 46.0432 42.6703 46.0432C43.3243 47.3155 44.0833 48.5587 44.9241 49.7318C47.5691 53.4204 51.0899 56.4786 55.1011 58.5797C59.2992 60.78 63.8476 61.9006 68.6238 61.9006C77.5279 61.9006 85.8249 57.9085 91.3951 50.9516C92.3351 49.7726 93.1934 48.5178 93.9466 47.2046C94.1218 46.8953 94.2969 46.5801 94.4663 46.2591C91.2958 43.4985 87.2846 41.7535 82.9638 41.3916C81.6501 41.2807 80.3422 41.1873 79.0285 41.1056C81.872 37.9773 84.0148 33.7868 84.2309 29.1469C88.7501 31.9834 93.9057 33.4133 93.9057 33.4133ZM76.4945 32.2985C74.0188 32.2985 71.4848 31.067 69.9842 30.1799C69.1493 29.6838 68.0866 29.6838 67.2517 30.1799C65.7511 31.067 63.217 32.2985 60.7414 32.2985C58.3358 32.2985 56.5141 30.5243 56.5141 28.3298C56.5141 26.1411 58.3942 24.361 60.7414 24.361C62.4638 24.361 64.3031 24.7287 65.7686 25.1198C67.6312 25.6159 69.6105 25.6159 71.4731 25.1198C72.9386 24.7287 74.772 24.361 76.5003 24.361C78.8475 24.361 80.7276 26.1353 80.7276 28.3298C80.7217 30.5184 78.9059 32.2985 76.4945 32.2985Z" fill="black"/>
<path d="M74.6776 26.9699C73.5916 26.9699 72.348 27.2559 71.6999 27.4251C71.443 27.4952 71.2678 27.7403 71.2911 28.0029C71.3145 28.2889 71.6123 28.4757 71.8809 28.3648C72.2312 28.2189 72.7275 28.0438 73.2939 27.9154C73.1771 28.0847 73.1128 28.2889 73.1128 28.5107C73.1128 29.1235 73.6442 29.6255 74.2981 29.6255C74.9521 29.6255 75.4834 29.1294 75.4834 28.5107C75.4834 28.2131 75.3608 27.9446 75.1564 27.7461C76.6687 27.7228 78.0875 27.6177 78.0875 27.6177L78.0525 27.3493C78.0525 27.3493 76.2249 26.9699 74.6776 26.9699Z" fill="black"/>
<path d="M65.7216 27.4251C65.0735 27.2559 63.824 26.9699 62.7438 26.9699C61.1966 26.9699 59.369 27.3493 59.369 27.3493L59.334 27.6177C59.334 27.6177 60.7528 27.7286 62.2651 27.7461C62.0607 27.9446 61.9381 28.2131 61.9381 28.5107C61.9381 29.1235 62.4694 29.6255 63.1234 29.6255C63.7773 29.6255 64.3086 29.1294 64.3086 28.5107C64.3086 28.2948 64.2386 28.0905 64.1276 27.9154C64.6882 28.0438 65.1845 28.2189 65.5406 28.3648C65.8092 28.4757 66.1011 28.2889 66.1303 28.0029C66.1537 27.7345 65.9785 27.4952 65.7216 27.4251Z" fill="black"/>
</g>
<defs>
<clipPath id="clip0_1372_821">
<rect width="137.679" height="100.66" fill="white"/>
</clipPath>
</defs>
</svg>
