<svg width="40" height="40" viewBox="0 0 40 40" fill="none" xmlns="http://www.w3.org/2000/svg">
<path opacity="0.4" d="M36.6673 20.008C36.6673 29.1896 29.1866 36.6667 20.0007 36.6667C10.8147 36.6667 3.33398 29.1896 3.33398 20.008C3.33398 10.8104 10.8147 3.33333 20.0007 3.33333C29.1866 3.33333 36.6673 10.8104 36.6673 20.008Z" fill="white"/>
<path d="M26.6667 20.0081C26.6667 20.4293 26.5341 20.8522 26.2689 21.1908C26.2192 21.2572 25.9872 21.531 25.8049 21.7092L25.7055 21.8064C24.3134 23.2823 20.8499 25.5018 19.0933 26.213C19.0933 26.2292 18.0492 26.6521 17.5521 26.6667H17.4858C16.7235 26.6667 16.0109 26.2471 15.6463 25.5666C15.4474 25.1924 15.2652 24.1069 15.2486 24.0923C15.0994 23.1187 15 21.6282 15 19.9919C15 18.2762 15.0994 16.7193 15.2817 15.7635C15.2817 15.7473 15.464 14.8724 15.58 14.5808C15.7623 14.1612 16.0938 13.8032 16.508 13.5763C16.8395 13.416 17.1875 13.3333 17.5521 13.3333C17.9332 13.3512 18.6458 13.5925 18.9276 13.706C20.7836 14.4188 24.33 16.7517 25.6889 18.1774C25.9209 18.4042 26.1695 18.6812 26.2358 18.7444C26.5175 19.1008 26.6667 19.5383 26.6667 20.0081Z" fill="white"/>
</svg>
